<?xml version="1.0" ?><svg id="Layer_1" style="enable-background:new 0 0 65 65;" version="1.1" viewBox="0 0 65 65" xml:space="preserve" xmlns="http://www.w3.org/2000/svg" xmlns:xlink="http://www.w3.org/1999/xlink"><style type="text/css">
	.st0{fill:#1C1F20;}
</style><g><path class="st0" d="M7.5,61.9h-6c-0.6,0-1,0.4-1,1s0.4,1,1,1h6c0.6,0,1-0.4,1-1S8.1,61.9,7.5,61.9z"/><path class="st0" d="M11.5,61.9h-1c-0.6,0-1,0.4-1,1s0.4,1,1,1h1c0.6,0,1-0.4,1-1S12.1,61.9,11.5,61.9z"/><path class="st0" d="M63.5,4.9h-1v-1c0-0.6-0.4-1-1-1s-1,0.4-1,1v1h-1c-0.6,0-1,0.4-1,1s0.4,1,1,1h1v1c0,0.6,0.4,1,1,1s1-0.4,1-1   v-1h1c0.6,0,1-0.4,1-1S64.1,4.9,63.5,4.9z"/><path class="st0" d="M55.5,17.2v31.7c0,3.3-2.7,6-6,6H14.4l1.7,8c0.2,1.1,1.3,1.8,2.4,1.5l43-9.1c1.1-0.2,1.8-1.3,1.5-2.4   L55.5,17.2z"/><path class="st0" d="M36.5,38.9v-5.5c-1,0.9-1.8,2.9-2,5.5H36.5z"/><path class="st0" d="M38.5,46.4c1-0.9,1.8-2.9,2-5.5h-2V46.4z"/><path class="st0" d="M38.5,38.9h2c-0.2-2.6-1-4.6-2-5.5V38.9z"/><path class="st0" d="M30.6,38.9h1.9c0.1-1.9,0.5-3.5,1.1-4.8C32,35.1,30.9,36.9,30.6,38.9z"/><path class="st0" d="M36.5,46.4v-5.5h-2C34.7,43.5,35.5,45.5,36.5,46.4z"/><path class="st0" d="M30.6,40.9c0.3,2,1.4,3.7,3.1,4.8c-0.6-1.3-1-3-1.1-4.8H30.6z"/><path class="st0" d="M41.4,45.7c1.6-1.1,2.8-2.8,3.1-4.8h-1.9C42.4,42.7,42,44.4,41.4,45.7z"/><path class="st0" d="M41.4,34c0.6,1.3,1,3,1.1,4.8h1.9C44.1,36.9,43,35.1,41.4,34z"/><rect class="st0" height="10" width="42" x="6.5" y="7.9"/><path class="st0" d="M5.5,52.9h44c2.2,0,4-1.8,4-4V3.7l-3.3-3.3L47,3.7l-3.3-3.3l-3.3,3.3l-3.3-3.3L34,3.7l-3.3-3.3l-3.3,3.3   l-3.3-3.3L21,3.7l-3.3-3.3l-3.3,3.3l-3.3-3.3L8,3.7L4.8,0.5L1.5,3.7v45.1C1.5,51.1,3.3,52.9,5.5,52.9z M37.5,48.9c-5,0-9-4-9-9   s4-9,9-9s9,4,9,9S42.5,48.9,37.5,48.9z M4.5,6.9c0-0.6,0.4-1,1-1h44c0.6,0,1,0.4,1,1v12c0,0.6-0.4,1-1,1h-44c-0.6,0-1-0.4-1-1V6.9z    M5.5,22.9h44c0.6,0,1,0.4,1,1s-0.4,1-1,1h-44c-0.6,0-1-0.4-1-1S4.9,22.9,5.5,22.9z M5.5,26.9h44c0.6,0,1,0.4,1,1s-0.4,1-1,1h-44   c-0.6,0-1-0.4-1-1S4.9,26.9,5.5,26.9z M5.5,30.9h20c0.6,0,1,0.4,1,1s-0.4,1-1,1h-20c-0.6,0-1-0.4-1-1S4.9,30.9,5.5,30.9z M5.5,34.9   h20c0.6,0,1,0.4,1,1s-0.4,1-1,1h-20c-0.6,0-1-0.4-1-1S4.9,34.9,5.5,34.9z M5.5,38.9h20c0.6,0,1,0.4,1,1s-0.4,1-1,1h-20   c-0.6,0-1-0.4-1-1S4.9,38.9,5.5,38.9z M5.5,42.9h20c0.6,0,1,0.4,1,1s-0.4,1-1,1h-20c-0.6,0-1-0.4-1-1S4.9,42.9,5.5,42.9z M5.5,46.9   h20c0.6,0,1,0.4,1,1s-0.4,1-1,1h-20c-0.6,0-1-0.4-1-1S4.9,46.9,5.5,46.9z"/></g></svg>