<svg width="18.500000" height="18.987274" viewBox="0 0 18.5 18.9873" fill="none" xmlns="http://www.w3.org/2000/svg" xmlns:xlink="http://www.w3.org/1999/xlink">
	<desc>
			Created with Pixso.
	</desc>
	<defs/>
	<path id="Vector" d="M11.5 12.7373C11.5 12.5384 11.4209 12.3476 11.2803 12.2069C11.1396 12.0663 10.9487 11.9873 10.75 11.9873L7.75 11.9873C7.55127 11.9873 7.36035 12.0663 7.21973 12.2069C7.0791 12.3476 7 12.5384 7 12.7373L7 17.2373C7 17.4362 6.9209 17.627 6.78027 17.7676C6.63965 17.9082 6.44873 17.9873 6.25 17.9873L1.75 17.9873C1.55127 17.9873 1.36035 17.9082 1.21973 17.7676C1.0791 17.627 1 17.4362 1 17.2373L1 8.5654C1.00146 8.46158 1.02393 8.35919 1.06592 8.26419C1.10791 8.16919 1.16846 8.08353 1.24365 8.01227L8.74365 1.19662C8.88184 1.07016 9.0625 1 9.25 1C9.4375 1 9.61816 1.07016 9.75635 1.19662L17.2563 8.01227C17.3315 8.08353 17.3921 8.16919 17.4341 8.26419C17.4761 8.35919 17.4985 8.46158 17.5 8.5654L17.5 17.2373C17.5 17.4362 17.4209 17.627 17.2803 17.7676C17.1396 17.9082 16.9487 17.9873 16.75 17.9873L12.25 17.9873C12.0513 17.9873 11.8604 17.9082 11.7197 17.7676C11.5791 17.627 11.5 17.4362 11.5 17.2373L11.5 12.7373Z" stroke="#FFFFFF" stroke-opacity="1.000000" stroke-width="2.000000" stroke-linejoin="round"/>
</svg>
